solid atmosphere
facet normal 0.000000 1.000000 0.000000
outer loop
vertex 5.000001 1.600001 0.000001
vertex 0.000001 1.600001 0.000001
vertex 5.000001 1.600001 0.520001
endloop
endfacet
facet normal 0.000000 1.000000 0.000000
outer loop
vertex 5.000001 1.600001 0.520001
vertex 0.000001 1.600001 0.000001
vertex 0.000001 1.600001 0.520001
endloop
endfacet
facet normal -1.000000 0.000000 0.000000
outer loop
vertex 0.000001 1.600001 0.000001
vertex 0.000001 1.500001 0.000001
vertex 0.000001 1.500001 0.520001
endloop
endfacet
facet normal -1.000000 0.000000 0.000000
outer loop
vertex 0.000001 1.600001 0.000001
vertex 0.000001 1.500001 0.520001
vertex 0.000001 1.600001 0.520001
endloop
endfacet
facet normal -1.000000 0.000000 0.000000
outer loop
vertex 0.000001 1.500001 0.000001
vertex 0.000001 1.400001 0.000001
vertex 0.000001 1.400001 0.520001
endloop
endfacet
facet normal -1.000000 0.000000 0.000000
outer loop
vertex 0.000001 1.500001 0.000001
vertex 0.000001 1.400001 0.520001
vertex 0.000001 1.500001 0.520001
endloop
endfacet
facet normal -1.000000 0.000000 0.000000
outer loop
vertex 0.000001 1.400001 0.000001
vertex 0.000001 1.300001 0.000001
vertex 0.000001 1.300001 0.520001
endloop
endfacet
facet normal -1.000000 0.000000 0.000000
outer loop
vertex 0.000001 1.400001 0.000001
vertex 0.000001 1.300001 0.520001
vertex 0.000001 1.400001 0.520001
endloop
endfacet
facet normal -1.000000 0.000000 0.000000
outer loop
vertex 0.000001 1.300001 0.000001
vertex 0.000001 1.200001 0.000001
vertex 0.000001 1.200001 0.520001
endloop
endfacet
facet normal -1.000000 0.000000 0.000000
outer loop
vertex 0.000001 1.300001 0.000001
vertex 0.000001 1.200001 0.520001
vertex 0.000001 1.300001 0.520001
endloop
endfacet
facet normal -1.000000 0.000000 0.000000
outer loop
vertex 0.000001 1.200001 0.000001
vertex 0.000001 1.100001 0.000001
vertex 0.000001 1.100001 0.520001
endloop
endfacet
facet normal -1.000000 0.000000 0.000000
outer loop
vertex 0.000001 1.200001 0.000001
vertex 0.000001 1.100001 0.520001
vertex 0.000001 1.200001 0.520001
endloop
endfacet
endsolid atmosphere
