solid inlet
facet normal -1.000000 0.000000 0.000000
outer loop
vertex 0.000001 0.600001 0.000001
vertex 0.000001 0.500001 0.000001
vertex 0.000001 0.500001 0.520001
endloop
endfacet
facet normal -1.000000 0.000000 0.000000
outer loop
vertex 0.000001 0.600001 0.000001
vertex 0.000001 0.500001 0.520001
vertex 0.000001 0.600001 0.520001
endloop
endfacet
facet normal -1.000000 0.000000 0.000000
outer loop
vertex 0.000001 1.100001 0.000001
vertex 0.000001 1.000001 0.000001
vertex 0.000001 1.000001 0.520001
endloop
endfacet
facet normal -1.000000 0.000000 0.000000
outer loop
vertex 0.000001 1.100001 0.000001
vertex 0.000001 1.000001 0.520001
vertex 0.000001 1.100001 0.520001
endloop
endfacet
facet normal -1.000000 0.000000 0.000000
outer loop
vertex 0.000001 1.000001 0.000001
vertex 0.000001 0.900001 0.000001
vertex 0.000001 0.900001 0.520001
endloop
endfacet
facet normal -1.000000 0.000000 0.000000
outer loop
vertex 0.000001 1.000001 0.000001
vertex 0.000001 0.900001 0.520001
vertex 0.000001 1.000001 0.520001
endloop
endfacet
facet normal -1.000000 0.000000 0.000000
outer loop
vertex 0.000001 0.900001 0.000001
vertex 0.000001 0.800001 0.000001
vertex 0.000001 0.800001 0.520001
endloop
endfacet
facet normal -1.000000 0.000000 0.000000
outer loop
vertex 0.000001 0.900001 0.000001
vertex 0.000001 0.800001 0.520001
vertex 0.000001 0.900001 0.520001
endloop
endfacet
facet normal -1.000000 0.000000 0.000000
outer loop
vertex 0.000001 0.800001 0.000001
vertex 0.000001 0.700001 0.000001
vertex 0.000001 0.700001 0.520001
endloop
endfacet
facet normal -1.000000 0.000000 0.000000
outer loop
vertex 0.000001 0.800001 0.000001
vertex 0.000001 0.700001 0.520001
vertex 0.000001 0.800001 0.520001
endloop
endfacet
facet normal -1.000000 0.000000 0.000000
outer loop
vertex 0.000001 0.700001 0.000001
vertex 0.000001 0.600001 0.000001
vertex 0.000001 0.600001 0.520001
endloop
endfacet
facet normal -1.000000 0.000000 0.000000
outer loop
vertex 0.000001 0.700001 0.000001
vertex 0.000001 0.600001 0.520001
vertex 0.000001 0.700001 0.520001
endloop
endfacet
endsolid inlet
